HIERARCHY
ROOT root
{
	OFFSET 0.000000 0.000000 0.000000
	CHANNELS 6 Xposition Yposition Zposition Zrotation Yrotation Xrotation
	JOINT lhip
	{
		OFFSET 0.058581 -0.082280 -0.017664
		CHANNELS 3 Zrotation Yrotation Xrotation
		JOINT lknee
		{
			OFFSET 0.043451 -0.386469 0.008037
			CHANNELS 3 Zrotation Yrotation Xrotation
			JOINT lankle
			{
				OFFSET -0.014790 -0.426874 -0.037428
				CHANNELS 3 Zrotation Yrotation Xrotation
				JOINT ltoe
				{
					OFFSET 0.041054 -0.060286 0.122042
					CHANNELS 3 Zrotation Yrotation Xrotation
					End Site
					{
						OFFSET 0.000000 0.000000 0.000000
					}
				}
			}
		}
	}
	JOINT rhip
	{
		OFFSET -0.060310 -0.090513 -0.013543
		CHANNELS 3 Zrotation Yrotation Xrotation
		JOINT rknee
		{
			OFFSET -0.043257 -0.383688 -0.004843
			CHANNELS 3 Zrotation Yrotation Xrotation
			JOINT rankle
			{
				OFFSET 0.019056 -0.420046 -0.034562
				CHANNELS 3 Zrotation Yrotation Xrotation
				JOINT rtoe
				{
					OFFSET -0.034840 -0.062106 0.130323
					CHANNELS 3 Zrotation Yrotation Xrotation
					End Site
					{
						OFFSET 0.000000 0.000000 0.000000
					}
				}
			}
		}
	}
	JOINT lowerback
	{
		OFFSET 0.004439 0.124404 -0.038385
		CHANNELS 3 Zrotation Yrotation Xrotation
		JOINT upperback
		{
			OFFSET 0.004488 0.137956 0.026820
			CHANNELS 3 Zrotation Yrotation Xrotation
			JOINT chest
			{
				OFFSET -0.002265 0.056032 0.002855
				CHANNELS 3 Zrotation Yrotation Xrotation
				JOINT lowerneck
				{
					OFFSET -0.013390 0.211636 -0.033468
					CHANNELS 3 Zrotation Yrotation Xrotation
					JOINT upperneck
					{
						OFFSET 0.010113 0.088937 0.050410
						CHANNELS 3 Zrotation Yrotation Xrotation
						End Site
						{
							OFFSET 0.000000 0.000000 0.000000
						}
					}
				}
				JOINT lclavicle
				{
					OFFSET 0.071702 0.114000 -0.018898
					CHANNELS 3 Zrotation Yrotation Xrotation
					JOINT lshoulder
					{
						OFFSET 0.122921 0.045205 -0.019046
						CHANNELS 3 Zrotation Yrotation Xrotation
						JOINT lelbow
						{
							OFFSET 0.255332 -0.015649 -0.022946
							CHANNELS 3 Zrotation Yrotation Xrotation
							JOINT lwrist
							{
								OFFSET 0.265709 0.012698 -0.007375
								CHANNELS 3 Zrotation Yrotation Xrotation
								End Site
								{
									OFFSET 0.000000 0.000000 0.000000
								}
							}
						}
					}
				}
				JOINT rclavicle
				{
					OFFSET -0.082954 0.112472 -0.023707
					CHANNELS 3 Zrotation Yrotation Xrotation
					JOINT rshoulder
					{
						OFFSET -0.113228 0.046853 -0.008472
						CHANNELS 3 Zrotation Yrotation Xrotation
						JOINT relbow
						{
							OFFSET -0.260127 -0.014369 -0.031269
							CHANNELS 3 Zrotation Yrotation Xrotation
							JOINT rwrist
							{
								OFFSET -0.269108 0.006794 -0.006027
								CHANNELS 3 Zrotation Yrotation Xrotation
								End Site
								{
									OFFSET 0.000000 0.000000 0.000000
								}
							}
						}
					}
				}
			}
		}
	}
}
MOTION
Frames: 15
Frame Time: 0.033333
1.140996 1.173580 1.133353 -86.285250 2.768832 86.653149 1.258670 0.276221 8.115927 -2.883245 -14.401403 1.519405 5.674726 7.518727 -15.499184 0.000000 -0.000000 0.000000 3.318832 -2.586754 6.883671 4.909603 1.522127 2.760501 1.863601 -4.061215 -10.115867 0.000000 -0.000000 0.000000 -1.397208 2.007217 3.990623 1.881668 -2.530242 3.712725 1.424953 -2.133491 4.467976 3.642747 -2.870665 2.650520 3.244888 -5.033559 2.086208 -25.839905 3.592541 2.030432 -61.414911 -8.307067 7.937692 9.293371 -26.424300 5.669136 -3.786644 -0.755219 -8.871650 23.395548 -2.496984 0.672736 61.531934 2.894755 9.482249 -14.481107 22.748646 -3.446930 7.553472 -1.094095 -8.452170 
1.140512 1.173434 1.133162 -86.389667 2.792243 86.562359 1.334919 0.354510 8.220542 -2.993416 -14.376625 1.567961 5.684726 7.494983 -15.555784 0.000000 -0.000000 0.000000 3.313734 -2.605708 6.922679 4.922259 1.459692 2.952564 1.785576 -4.057180 -10.226518 0.000000 -0.000000 0.000000 -1.482758 1.986569 4.144836 1.984075 -2.565059 3.562658 1.543953 -2.193031 4.054303 4.165593 -4.205159 3.599221 2.927310 -5.544043 2.724826 -25.752623 3.666358 2.770537 -61.575811 -8.290412 7.765274 9.490214 -26.633157 5.825507 -4.147489 -0.639153 -9.534680 22.923195 -2.523839 1.216634 61.880927 2.993618 9.260130 -14.538766 23.016768 -3.168937 7.573254 -1.171771 -8.595400 
1.140293 1.173238 1.133153 -86.560656 2.799398 86.676735 1.350011 0.359553 8.111255 -3.029960 -14.221196 1.555295 5.570556 7.524416 -15.561636 0.000000 -0.000000 0.000000 3.347586 -2.456315 6.708442 4.864913 1.508219 3.118705 1.847223 -4.089636 -10.274946 0.000000 -0.000000 0.000000 -1.514891 1.911262 3.970947 1.961157 -2.567659 3.578722 1.474082 -2.218059 4.256610 4.163228 -3.438325 3.043906 3.011540 -5.248610 2.757955 -25.741703 3.708097 2.603568 -61.510274 -8.174792 7.794390 9.518102 -26.298257 5.728916 -4.008698 -0.801039 -9.412620 23.146653 -2.680347 0.960985 61.721610 3.036610 9.429029 -14.680564 23.514824 -3.504293 7.540928 -0.702703 -9.051710 
1.139996 1.173042 1.133158 -86.708161 2.886427 86.738569 1.489020 0.438569 7.994089 -3.124558 -14.184636 1.658955 5.605026 7.544373 -15.650903 0.000000 -0.000000 0.000000 3.449782 -2.376011 6.666721 4.868688 1.657374 3.156333 1.865137 -4.059391 -10.342663 0.000000 -0.000000 0.000000 -1.518311 1.841634 3.811891 2.028583 -2.646172 3.633424 1.482659 -2.289617 4.296917 4.203884 -3.952294 3.218209 2.868355 -5.594701 2.687008 -25.752581 3.894154 2.626393 -61.607112 -7.999471 7.662219 9.524018 -25.832296 5.731302 -4.126063 -0.830554 -9.497226 23.048328 -2.733334 1.012744 61.869041 3.088180 9.532080 -14.732862 24.064089 -3.273866 7.325224 -0.875454 -8.978844 
1.139911 1.172877 1.133356 -86.787734 2.915745 86.904395 1.461811 0.340737 7.838821 -3.074438 -14.058188 1.644614 5.550751 7.614140 -15.636454 0.000000 -0.000000 0.000000 3.512844 -2.263813 6.515039 4.835912 1.872692 3.077847 1.913932 -4.306554 -10.287992 0.000000 -0.000000 0.000000 -1.483667 1.775716 3.655112 1.934513 -2.594418 3.585255 1.431213 -2.406730 4.624734 4.386551 -2.182290 1.333251 2.863001 -4.578499 2.889244 -25.845853 4.090216 2.252582 -61.492731 -7.821785 7.764251 9.402693 -25.389157 5.779442 -3.756316 -0.916367 -9.123106 23.418244 -2.979053 0.514454 61.681392 3.150969 10.012383 -14.715306 24.270973 -3.269932 7.084757 -0.958249 -8.886689 
1.139257 1.172774 1.133092 -86.955322 2.966664 86.749183 1.548286 0.549849 8.128293 -3.092248 -14.049141 1.520023 5.523642 7.560014 -15.688387 0.000000 -0.000000 0.000000 3.533737 -2.310252 6.701049 4.808116 1.860991 3.122077 1.935613 -4.061738 -10.324506 0.000000 -0.000000 0.000000 -1.520618 1.767224 3.874175 2.031467 -2.687118 3.551580 1.465150 -2.431191 4.431713 4.553203 -3.353371 2.026522 2.943662 -5.487683 2.935391 -25.856621 4.206440 2.451013 -61.565711 -7.438097 7.610642 9.408347 -24.930131 5.842972 -3.904567 -1.058079 -9.191536 23.230390 -3.007982 0.679319 61.809236 3.206464 9.855316 -14.726271 24.802729 -3.227924 7.084864 -0.705208 -9.051920 
1.138979 1.172553 1.133077 -87.160987 2.928614 86.695878 1.479904 0.667722 8.276083 -3.071016 -14.057294 1.427392 5.503164 7.612251 -15.726124 0.000000 -0.000000 0.000000 3.571724 -2.254945 6.521720 4.662021 1.905287 3.581225 1.916340 -4.010528 -10.584905 0.000000 -0.000000 0.000000 -1.632689 1.737373 3.964899 2.025483 -2.659509 3.463766 1.486885 -2.435883 4.525839 4.635995 -3.026612 1.747048 2.900201 -5.386269 2.913604 -25.874350 4.493594 2.339212 -61.622886 -7.161010 7.573147 9.298692 -24.223261 6.092710 -3.736372 -0.979266 -8.852461 23.328102 -3.127282 0.485041 61.900573 3.340307 9.924165 -14.783677 24.716089 -3.339065 6.865430 -0.513794 -9.106947 
1.138705 1.172422 1.133150 -87.219101 2.970986 86.731500 1.531761 0.702822 8.333919 -3.076828 -14.073801 1.342564 5.539216 7.612136 -15.754430 0.000000 -0.000000 0.000000 3.670263 -2.199934 6.463113 4.585487 1.889808 3.613309 1.861304 -4.125692 -10.579760 0.000000 -0.000000 0.000000 -1.677718 1.675730 3.872084 2.043218 -2.724553 3.500597 1.502296 -2.502749 4.528855 4.658031 -3.055412 1.906100 2.965343 -5.359642 2.780590 -25.905062 4.533724 2.602771 -61.592331 -6.791666 7.442099 9.258065 -23.744286 6.147530 -3.827517 -1.022941 -8.870888 23.389258 -3.110049 0.646262 61.902360 3.291858 9.946813 -14.823289 25.227164 -3.226149 6.972220 -0.510094 -9.221834 
1.138448 1.172178 1.132925 -87.320542 2.974476 86.739682 1.528403 0.808312 8.410635 -3.074980 -14.058548 1.251060 5.549460 7.626009 -15.837838 0.000000 -0.000000 0.000000 3.606743 -2.171318 6.469657 4.636257 1.936864 3.586406 1.960379 -3.991316 -10.563244 0.000000 -0.000000 0.000000 -1.656720 1.673250 3.778542 2.036243 -2.782051 3.564533 1.479430 -2.532631 4.556690 4.709069 -3.379526 1.991575 3.091098 -5.669992 2.562251 -26.001805 4.616938 2.640821 -61.605620 -6.548184 7.305314 9.253012 -22.876478 6.108389 -3.789118 -0.997661 -8.560977 23.410571 -3.184465 0.523687 61.894488 3.178380 9.932834 -14.694457 25.477507 -3.102904 6.874115 -0.547839 -9.159073 
1.138289 1.172018 1.132822 -87.388025 2.983899 86.715593 1.545370 0.838010 8.471593 -3.110840 -13.968863 1.224239 5.558292 7.593760 -15.774009 0.000000 -0.000000 0.000000 3.615849 -2.146060 6.527229 4.610736 1.975614 3.620359 1.854532 -3.976810 -10.696931 0.000000 -0.000000 0.000000 -1.634112 1.644951 3.746669 2.061659 -2.815453 3.595676 1.462685 -2.597372 4.533785 4.896634 -3.612147 1.844814 2.858287 -5.770541 2.647408 -26.081229 4.830714 2.843508 -61.689659 -6.176812 7.217404 9.311941 -22.302820 6.220454 -3.982761 -1.050974 -8.596893 23.375546 -3.180057 0.556442 62.018085 3.242376 9.967765 -14.674905 25.466709 -3.159401 6.834578 -0.521119 -9.460757 
1.138195 1.171832 1.132770 -87.347569 3.002525 86.702225 1.555643 0.813894 8.476527 -3.122969 -14.072041 1.254600 5.552975 7.611722 -15.749589 0.000000 -0.000000 0.000000 3.659291 -2.132038 6.524841 4.589803 2.040699 3.687097 1.760936 -4.151342 -10.696418 0.000000 -0.000000 0.000000 -1.592194 1.585327 3.729621 2.068634 -2.831956 3.648032 1.434730 -2.612660 4.529139 5.004936 -3.807895 1.719472 2.852683 -5.879995 2.601772 -26.136334 4.982652 2.967814 -61.695459 -5.902073 7.151140 9.277494 -22.083090 6.271470 -4.145199 -0.812706 -8.699515 23.332863 -3.238628 0.530190 62.140133 3.126402 10.018398 -14.690447 25.413235 -3.042358 6.866015 -0.555586 -9.509544 
1.136246 1.171387 1.132876 -86.646058 3.204730 86.340826 1.870842 0.953777 8.939657 -3.141824 -14.573721 1.327006 5.421980 7.279156 -15.869885 0.000000 -0.000000 0.000000 3.829911 -2.962700 7.443540 4.528633 2.312047 3.033824 1.721319 -4.268428 -10.623498 0.000000 -0.000000 0.000000 -1.392738 1.240357 3.813372 2.126869 -3.134745 3.910597 1.416405 -2.682087 4.475599 5.039180 -3.931606 1.720514 2.826677 -5.955930 2.660368 -26.255050 5.133558 3.135720 -61.622743 -5.716988 7.058515 9.166699 -21.773264 6.543237 -4.151599 -0.920233 -8.666952 23.440664 -3.228228 0.552082 62.096591 3.008956 9.827006 -14.720010 25.012867 -3.000936 6.747194 -0.541924 -9.358577 
1.137026 1.171309 1.132788 -86.875544 3.152037 86.445769 1.773342 0.929370 8.816155 -3.132043 -14.523716 1.261836 5.407568 7.442673 -15.858997 0.000000 -0.000000 0.000000 3.756544 -2.748523 7.116160 4.596803 2.237561 3.302872 1.677739 -4.248954 -10.724195 0.000000 -0.000000 0.000000 -1.450357 1.409844 3.708256 2.144445 -3.009722 3.908239 1.454967 -2.676801 4.555629 5.037528 -3.778515 1.572008 2.801600 -5.937044 2.583988 -26.252494 5.166151 3.047101 -61.671525 -5.616274 7.065268 9.176487 -21.529562 6.675886 -4.152705 -0.549021 -8.318167 23.534196 -3.251727 0.455136 61.979037 3.092814 9.804946 -14.635179 24.693036 -2.949273 6.749161 -0.689577 -9.077267 
1.137548 1.171257 1.132799 -86.950271 3.086916 86.511134 1.655102 0.896518 8.697812 -3.088152 -14.436925 1.263235 5.469168 7.539678 -15.864701 0.000000 -0.000000 0.000000 3.743981 -2.557929 6.820603 4.547990 2.253684 3.658285 1.703854 -4.328520 -10.900994 0.000000 -0.000000 0.000000 -1.496932 1.449293 3.663055 2.126878 -2.899969 3.853664 1.438476 -2.646737 4.678603 5.144846 -3.372276 0.973689 2.717431 -5.771436 2.699343 -26.273990 5.267609 2.844068 -61.590381 -5.537788 7.119511 9.015873 -21.211124 6.918602 -4.214196 -0.643924 -8.226023 23.645925 -3.359457 0.390230 61.906825 3.073275 9.937836 -14.573585 24.374454 -2.901835 6.693582 -0.638009 -8.990048 
1.137406 1.171087 1.132803 -86.868553 3.055893 86.362665 1.613656 0.991385 8.866578 -3.052046 -14.576284 1.257742 5.494664 7.491244 -15.852587 0.000000 -0.000000 0.000000 3.655504 -2.739926 6.972235 4.566491 2.248942 3.717533 1.709855 -4.225928 -10.950282 0.000000 -0.000000 0.000000 -1.468146 1.472832 3.662607 2.111691 -2.904191 4.002484 1.412365 -2.618297 4.673762 5.148809 -3.401781 1.218277 2.811244 -5.818585 2.696956 -26.293489 5.218642 2.884965 -61.535505 -5.543055 7.080611 9.020685 -21.042907 6.934854 -4.249413 -0.648635 -8.314029 23.688373 -3.340274 0.421770 61.839670 2.997780 9.814123 -14.534278 24.027506 -2.941979 6.820525 -0.610069 -8.989813 
